<?xml version="1.0" encoding="UTF-8" standalone="no"?>
<!-- Created with Inkscape (http://www.inkscape.org/) -->

<svg
   xmlns:dc="http://purl.org/dc/elements/1.1/"
   xmlns:cc="http://creativecommons.org/ns#"
   xmlns:rdf="http://www.w3.org/1999/02/22-rdf-syntax-ns#"
   xmlns:svg="http://www.w3.org/2000/svg"
   xmlns="http://www.w3.org/2000/svg"
   xmlns:sodipodi="http://sodipodi.sourceforge.net/DTD/sodipodi-0.dtd"
   xmlns:inkscape="http://www.inkscape.org/namespaces/inkscape"
   width="28.730223mm"
   height="28.730223mm"
   viewBox="0 0 101.8 101.8"
   id="svg2"
   version="1.1"
   inkscape:version="0.91 r13725"
   sodipodi:docname="association.svg">
  <defs
     id="defs4" />
  <sodipodi:namedview
     id="base"
     pagecolor="#ffffff"
     bordercolor="#666666"
     borderopacity="1.0"
     inkscape:pageopacity="0.0"
     inkscape:pageshadow="2"
     inkscape:zoom="2.5015385"
     inkscape:cx="67.376998"
     inkscape:cy="70.387448"
     inkscape:document-units="px"
     inkscape:current-layer="layer1"
     showgrid="false"
     fit-margin-top="0"
     fit-margin-left="0"
     fit-margin-right="0"
     fit-margin-bottom="0"
     inkscape:window-width="1680"
     inkscape:window-height="997"
     inkscape:window-x="0"
     inkscape:window-y="0"
     inkscape:window-maximized="1" />
  <metadata
     id="metadata7">
    <rdf:RDF>
      <cc:Work
         rdf:about="">
        <dc:format>image/svg+xml</dc:format>
        <dc:type
           rdf:resource="http://purl.org/dc/dcmitype/StillImage" />
        <dc:title></dc:title>
      </cc:Work>
    </rdf:RDF>
  </metadata>
  <g
     inkscape:label="Layer 1"
     inkscape:groupmode="layer"
     id="layer1"
     transform="translate(-107.67143,-308.60507)">
    <rect
       style="fill:none;stroke:#000000;stroke-width:5;stroke-miterlimit:4;stroke-dasharray:none;stroke-opacity:1"
       id="rect4136"
       width="100"
       height="100"
       x="108.57143"
       y="309.50507" />
    <text
       xml:space="preserve"
       style="font-style:normal;font-weight:normal;font-size:40px;line-height:125%;font-family:sans-serif;letter-spacing:0px;word-spacing:0px;fill:#000000;fill-opacity:1;stroke:none;stroke-width:1px;stroke-linecap:butt;stroke-linejoin:miter;stroke-opacity:1"
       x="147.07336"
       y="355.8941"
       id="text4138"
       sodipodi:linespacing="125%"><tspan
         sodipodi:role="line"
         id="tspan4140"
         x="147.07336"
         y="355.8941" /></text>
    <path
       style="fill:#000000"
       d="m 159.30963,390.57893 c -0.57075,-0.25922 -1.46712,-0.91343 -1.99191,-1.45379 l -0.95417,-0.98249 0.59328,-0.38103 c 1.96353,-1.26111 3.09479,-3.39028 3.11077,-5.85486 0.0171,-2.63418 -1.01922,-4.01154 -3.24296,-4.31032 -0.99255,-0.13337 -1.04939,-0.18941 -1.22263,-1.20536 -0.27553,-1.61586 -0.87606,-2.30618 -2.78685,-3.20351 -1.2207,-0.57327 -1.74103,-0.95715 -1.74457,-1.28708 -0.008,-0.80365 -0.79721,-2.18617 -1.55467,-2.72553 -0.39822,-0.28356 -1.19312,-0.596 -1.76642,-0.69431 -0.98792,-0.16939 -1.06651,-0.25004 -1.50423,-1.54343 -0.67713,-2.00083 -1.67096,-2.88542 -3.4031,-3.02906 -1.8068,-0.14984 -3.58484,0.64155 -5.49894,2.44752 -0.76394,0.72077 -1.46349,1.31049 -1.55455,1.31049 -0.35173,0 -2.50388,-2.52407 -3.0278,-3.55104 l -0.55114,-1.08032 0.58197,-0.67229 c 1.33051,-1.53702 14.09284,-14.27715 14.30203,-14.27715 0.44844,0 -0.13372,3.42799 -1.05389,6.20563 -0.75759,2.28691 -0.93628,3.20756 -0.94254,4.85626 -0.006,1.81519 0.0776,2.18505 0.78365,3.43299 0.99196,1.75316 2.6265,2.96855 4.52897,3.3676 3.58141,0.7512 6.59619,-1.54686 8.2203,-6.26606 0.34185,-0.99331 0.72627,-1.91599 0.85427,-2.0504 0.128,-0.13441 1.11691,-0.55647 2.19759,-0.93791 l 1.96485,-0.69353 1.27462,0.99015 c 0.70104,0.54458 3.21872,2.94062 5.59485,5.32452 l 4.32022,4.33437 1.80885,0 c 1.45722,0 1.97227,0.11122 2.64954,0.57217 1.22399,0.83304 1.81606,1.75883 1.96396,3.07094 0.1741,1.54464 -0.0632,2.36754 -0.82735,2.86818 -1.06532,0.69803 -2.4696,0.49818 -4.54341,-0.64659 -1.02931,-0.56819 -1.94321,-1.03308 -2.03089,-1.03308 -0.44259,0 -0.0499,1.45531 0.85777,3.17871 0.55945,1.06225 1.01718,2.10328 1.01718,2.31337 0,0.77158 -0.76374,1.82497 -1.61658,2.22967 -1.45026,0.68819 -2.32539,0.54305 -3.55399,-0.58944 -1.29328,-1.1921 -2.26303,-1.63135 -2.68033,-1.21407 -0.53763,0.53764 -0.28745,1.36634 0.85776,2.84113 1.2425,1.6001 1.41579,2.43856 0.76434,3.69833 -0.54127,1.04669 -1.35259,1.52859 -2.5735,1.52859 -0.8985,0 -1.25441,-0.17457 -2.33302,-1.14433 -1.31683,-1.18395 -1.7672,-1.33396 -2.62561,-0.87455 -0.65825,0.35229 -0.44293,1.09138 0.66226,2.27318 1.20149,1.28479 1.46503,1.92032 1.27143,3.06616 -0.34319,2.03136 -2.3472,2.81265 -4.59541,1.79157 z m -9.17557,-3.22117 c -0.28613,-0.74564 0.14926,-2.9575 0.80112,-4.06981 1.14448,-1.95291 3.23243,-3.16126 5.46243,-3.16126 0.97303,0 1.27965,0.0923 1.27965,0.38489 0,0.21169 0.13198,0.59622 0.29327,0.85451 0.58221,0.93225 -2.2159,4.91576 -4.14382,5.8993 -1.21278,0.61872 -3.46902,0.67516 -3.69265,0.0924 z m -4.08863,-4.0929 c -0.1736,-0.0702 -0.50036,-0.5168 -0.72613,-0.99258 -0.39823,-0.83918 -0.38945,-0.9013 0.29328,-2.07748 1.08554,-1.87015 2.90521,-4.0924 3.80774,-4.6502 1.20287,-0.74342 2.44359,-0.65802 3.39842,0.23393 1.37752,1.2868 0.86782,2.98427 -1.59571,5.31417 -1.96522,1.85862 -3.92185,2.67949 -5.1776,2.17216 z m -5.13441,-5.14823 c -0.28924,-0.40621 -0.52591,-1.01319 -0.52591,-1.34884 0,-0.84916 1.20785,-2.65026 2.71736,-4.05207 2.36468,-2.19593 4.22084,-2.68367 5.32553,-1.3994 0.77658,0.90283 0.76002,1.22729 -0.14306,2.80344 -1.16905,2.04034 -2.54249,3.47916 -3.94409,4.13182 -1.7897,0.83338 -2.76771,0.7949 -3.42983,-0.13495 z m -4.2544,-4.33238 c -2.46286,-1.05866 1.86477,-7.15331 5.25427,-7.39965 1.94414,-0.14129 2.03527,-0.0864 2.02321,1.218 -0.0213,2.30056 -1.22886,4.40825 -3.18128,5.55243 -1.17581,0.68908 -3.22475,1.00381 -4.0962,0.62922 z m 38.26588,-10.16189 c -0.64,-0.40588 -2.06251,-1.80769 -3.1611,-3.11513 -1.0986,-1.30744 -2.98918,-3.37845 -4.20128,-4.60225 -2.65315,-2.67878 -2.60573,-2.6708 -6.98988,-1.17598 l -3.08297,1.05118 -0.53068,1.98277 c -0.71147,2.65818 -1.44392,4.14707 -2.49348,5.06861 -0.78864,0.69242 -1.03957,0.76587 -2.61662,0.76587 -1.56238,0 -1.82441,-0.0748 -2.51198,-0.71708 -1.9226,-1.79599 -1.59897,-6.06982 0.84297,-11.13235 l 1.11586,-2.31334 1.6026,-0.58176 c 0.88144,-0.31996 2.5753,-1.03642 3.76413,-1.59212 8.14105,-3.80535 10.09075,-3.43919 15.43099,2.89795 0.9537,1.13174 2.9589,3.13114 4.45601,4.44313 1.49709,1.31199 3.08275,2.90977 3.52367,3.55062 1.47508,2.14396 1.2559,4.12636 -0.6053,5.47461 -1.39637,1.01151 -2.94302,1.00991 -4.54294,-0.005 z m -49.97713,-0.8828 c -1.63051,-1.15378 -10.41175,-10.19504 -10.58767,-10.90118 -0.27581,-1.10703 0.39739,-2.28064 2.15673,-3.75988 0.89088,-0.74906 5.91102,-5.69215 11.15589,-10.98464 5.24485,-5.2925 9.70775,-9.618 9.91754,-9.61222 1.03719,0.0286 3.25029,1.80778 7.01062,5.63606 2.24742,2.28805 4.44679,4.65881 4.8875,5.26837 0.77996,1.07877 0.79049,1.12914 0.3958,1.8924 -0.22302,0.43128 -4.42615,4.79597 -9.34029,9.69931 -4.91415,4.90335 -9.85578,9.91647 -10.98141,11.14027 -1.82585,1.98508 -2.14102,2.22374 -2.9218,2.21262 -0.48399,-0.006 -1.24071,-0.27112 -1.69291,-0.59111 z m 62.62095,-0.73127 c -0.97394,-0.73147 -3.2626,-2.87005 -5.08592,-4.7524 -1.82332,-1.88234 -6.13232,-6.23201 -9.57557,-9.66591 -3.44325,-3.43391 -6.50401,-6.60396 -6.8017,-7.04458 l -0.54124,-0.80112 1.42649,-1.86899 c 1.86828,-2.44781 3.87691,-4.51124 7.55853,-7.76466 1.93393,-1.70902 3.14629,-2.60826 3.39022,-2.51467 0.20884,0.0802 0.49177,0.14572 0.62874,0.14572 0.20641,0 10.40736,9.81446 19.56788,18.82649 3.46212,3.40601 3.8634,4.39009 2.57339,6.31086 -1.16725,1.73799 -10.51902,10.4716 -11.20213,10.46167 -0.0923,-9.3e-4 -0.96475,-0.60093 -1.93869,-1.33241 z"
       id="path4372"
       inkscape:connector-curvature="0" />
  </g>
</svg>
