<?xml version="1.0" encoding="UTF-8" standalone="no"?>
<!-- Created with Inkscape (http://www.inkscape.org/) -->

<svg
   xmlns:dc="http://purl.org/dc/elements/1.1/"
   xmlns:cc="http://creativecommons.org/ns#"
   xmlns:rdf="http://www.w3.org/1999/02/22-rdf-syntax-ns#"
   xmlns:svg="http://www.w3.org/2000/svg"
   xmlns="http://www.w3.org/2000/svg"
   xmlns:sodipodi="http://sodipodi.sourceforge.net/DTD/sodipodi-0.dtd"
   xmlns:inkscape="http://www.inkscape.org/namespaces/inkscape"
   width="28.730223mm"
   height="28.730223mm"
   viewBox="0 0 101.8 101.8"
   id="svg2"
   version="1.1"
   inkscape:version="0.91 r13725"
   sodipodi:docname="conflict.svg">
  <defs
     id="defs4" />
  <sodipodi:namedview
     id="base"
     pagecolor="#ffffff"
     bordercolor="#666666"
     borderopacity="1.0"
     inkscape:pageopacity="0.0"
     inkscape:pageshadow="2"
     inkscape:zoom="3.3754682"
     inkscape:cx="67.377577"
     inkscape:cy="85.195279"
     inkscape:document-units="px"
     inkscape:current-layer="layer1"
     showgrid="false"
     fit-margin-top="0"
     fit-margin-left="0"
     fit-margin-right="0"
     fit-margin-bottom="0"
     inkscape:window-width="1680"
     inkscape:window-height="997"
     inkscape:window-x="0"
     inkscape:window-y="0"
     inkscape:window-maximized="1" />
  <metadata
     id="metadata7">
    <rdf:RDF>
      <cc:Work
         rdf:about="">
        <dc:format>image/svg+xml</dc:format>
        <dc:type
           rdf:resource="http://purl.org/dc/dcmitype/StillImage" />
        <dc:title></dc:title>
      </cc:Work>
    </rdf:RDF>
  </metadata>
  <g
     inkscape:label="Layer 1"
     inkscape:groupmode="layer"
     id="layer1"
     transform="translate(-107.67143,-308.60507)">
    <rect
       style="fill:none;stroke:#000000;stroke-width:5;stroke-miterlimit:4;stroke-dasharray:none;stroke-opacity:1"
       id="rect4136"
       width="100"
       height="100"
       x="108.57143"
       y="309.50507" />
    <text
       xml:space="preserve"
       style="font-style:normal;font-weight:normal;font-size:40px;line-height:125%;font-family:sans-serif;letter-spacing:0px;word-spacing:0px;fill:#000000;fill-opacity:1;stroke:none;stroke-width:1px;stroke-linecap:butt;stroke-linejoin:miter;stroke-opacity:1"
       x="147.07336"
       y="355.8941"
       id="text4138"
       sodipodi:linespacing="125%"><tspan
         sodipodi:role="line"
         id="tspan4140"
         x="147.07336"
         y="355.8941" /></text>
    <path
       style="fill:#000000"
       d="m 118.96817,397.43596 c -2.10814,-0.43282 -3.30076,-1.27638 -3.89136,-2.75244 -0.47772,-1.19393 -0.49132,-1.56449 -0.0992,-2.70253 0.24992,-0.7254 9.19285,-16.47294 19.87319,-34.99453 13.49597,-23.40441 19.82489,-34.06711 20.75023,-34.95912 1.09502,-1.05557 1.57921,-1.28347 2.72696,-1.28347 1.14797,0 1.63156,0.22771 2.72584,1.28347 0.92285,0.89038 7.2783,11.59773 20.75008,34.95869 10.68088,18.52137 19.62434,34.26891 19.87432,34.99453 0.66204,1.92156 -0.14687,3.81906 -2.06565,4.84547 l -1.41141,0.755 -39.01752,0.0504 c -21.45965,0.0277 -39.55659,-0.0602 -40.21545,-0.19549 z m 42.31916,-7.23778 c 4.71892,-2.28439 3.877,-10.04079 -1.22267,-11.26417 -4.55657,-1.09311 -8.19035,2.40843 -7.39359,7.12446 0.67395,3.989 4.81633,5.97922 8.61626,4.13971 z m -0.16026,-23.20066 c 0.51967,-3.83221 1.49715,-10.32519 2.17219,-14.42884 1.44975,-8.81331 1.45817,-10.72141 0.0519,-11.768 -0.85446,-0.63593 -1.4359,-0.71916 -5.02323,-0.71916 -3.58775,0 -4.16865,0.0832 -5.02322,0.71936 -1.4467,1.077 -1.41539,3.14141 0.19836,13.08078 0.75428,4.64568 1.70191,10.91096 2.10585,13.92284 0.40394,3.01187 0.7942,5.67676 0.86726,5.92198 0.0925,0.31051 0.6751,0.41441 1.9194,0.34227 l 1.78661,-0.1036 0.94485,-6.96763 z"
       id="path4308"
       inkscape:connector-curvature="0" />
  </g>
</svg>
