<?xml version="1.0" encoding="UTF-8" standalone="no"?>
<!-- Created with Inkscape (http://www.inkscape.org/) -->

<svg
   xmlns:dc="http://purl.org/dc/elements/1.1/"
   xmlns:cc="http://creativecommons.org/ns#"
   xmlns:rdf="http://www.w3.org/1999/02/22-rdf-syntax-ns#"
   xmlns:svg="http://www.w3.org/2000/svg"
   xmlns="http://www.w3.org/2000/svg"
   xmlns:sodipodi="http://sodipodi.sourceforge.net/DTD/sodipodi-0.dtd"
   xmlns:inkscape="http://www.inkscape.org/namespaces/inkscape"
   width="28.730223mm"
   height="28.730223mm"
   viewBox="0 0 101.8 101.8"
   id="svg2"
   version="1.1"
   inkscape:version="0.91 r13725"
   sodipodi:docname="protective.svg">
  <defs
     id="defs4" />
  <sodipodi:namedview
     id="base"
     pagecolor="#ffffff"
     bordercolor="#666666"
     borderopacity="1.0"
     inkscape:pageopacity="0.0"
     inkscape:pageshadow="2"
     inkscape:zoom="4.9724771"
     inkscape:cx="25.5"
     inkscape:cy="42.25"
     inkscape:document-units="px"
     inkscape:current-layer="layer1"
     showgrid="false"
     fit-margin-top="0"
     fit-margin-left="0"
     fit-margin-right="0"
     fit-margin-bottom="0"
     inkscape:window-width="1680"
     inkscape:window-height="997"
     inkscape:window-x="0"
     inkscape:window-y="0"
     inkscape:window-maximized="1" />
  <metadata
     id="metadata7">
    <rdf:RDF>
      <cc:Work
         rdf:about="">
        <dc:format>image/svg+xml</dc:format>
        <dc:type
           rdf:resource="http://purl.org/dc/dcmitype/StillImage" />
        <dc:title></dc:title>
      </cc:Work>
    </rdf:RDF>
  </metadata>
  <g
     inkscape:label="Layer 1"
     inkscape:groupmode="layer"
     id="layer1"
     transform="translate(-107.67143,-308.60507)">
    <rect
       style="fill:none;stroke:#000000;stroke-width:5;stroke-miterlimit:4;stroke-dasharray:none;stroke-opacity:1"
       id="rect4136"
       width="100"
       height="100"
       x="108.57143"
       y="309.50507" />
    <text
       xml:space="preserve"
       style="font-style:normal;font-weight:normal;font-size:40px;line-height:125%;font-family:sans-serif;letter-spacing:0px;word-spacing:0px;fill:#000000;fill-opacity:1;stroke:none;stroke-width:1px;stroke-linecap:butt;stroke-linejoin:miter;stroke-opacity:1"
       x="147.07336"
       y="355.8941"
       id="text4138"
       sodipodi:linespacing="125%"><tspan
         sodipodi:role="line"
         id="tspan4140"
         x="147.07336"
         y="355.8941" /></text>
    <path
       style="fill:#000000"
       d="m 156.0999,399.22425 c -8.99711,-4.52565 -16.35436,-9.6499 -20.25339,-14.1063 -4.26312,-4.87252 -6.94367,-10.68925 -8.45121,-18.33891 -1.30309,-6.61223 -1.84818,-15.63297 -1.58338,-26.20352 0.1076,-4.29525 0.15538,-5.17462 0.28654,-5.27369 0.0866,-0.0654 0.44598,-0.14905 0.79869,-0.18592 1.75796,-0.18374 4.54558,-0.96394 6.12924,-1.71545 3.06872,-1.45623 4.913,-3.62343 6.20951,-7.2967 0.3548,-1.00524 0.7944,-2.75729 0.98087,-3.90936 l 0.12445,-0.76892 0.9316,-0.16802 c 5.71725,-1.03117 13.80817,-1.67041 19.29555,-1.52448 5.04142,0.13408 11.15066,0.73341 15.53391,1.52393 l 0.92865,0.16749 0.12455,0.87685 c 0.54985,3.87101 2.11006,7.32887 4.14709,9.1911 1.93493,1.76889 5.0379,3.02393 8.89621,3.59817 0.59738,0.0889 1.10311,0.21964 1.15281,0.298 0.12521,0.19738 0.11208,12.60125 -0.0167,15.76506 -0.33129,8.14021 -1.07283,15.02861 -2.05782,19.11569 -1.98802,8.24901 -6.28355,14.61475 -13.56651,20.10482 -3.61099,2.72205 -9.30361,6.06794 -15.06932,8.85713 -1.25935,0.60922 -2.29837,1.10736 -2.30892,1.10699 -0.0106,-3.2e-4 -1.01515,-0.50165 -2.23244,-1.11396 z m 8.11979,-8.74351 c 1.9467,-1.04778 4.33755,-2.44351 5.69175,-3.32272 3.72662,-2.41951 7.15242,-5.45837 9.19352,-8.15513 2.83729,-3.74871 4.63355,-8.11332 5.46984,-13.29078 0.2734,-1.69259 0.74178,-5.77535 0.67533,-5.88667 -0.0265,-0.0443 -5.8927,-0.0805 -13.03612,-0.0805 l -12.98803,0 0,-16.5268 c 0,-14.77789 -0.0175,-16.53351 -0.16528,-16.59023 -0.16635,-0.0638 -5.16284,0.10318 -6.06343,0.20268 -0.26579,0.0294 -1.25648,0.12709 -2.20152,0.21716 -2.29245,0.21848 -6.59961,0.8042 -7.16838,0.9748 -0.10354,0.031 -0.1887,0.16164 -0.18962,0.29076 -0.006,0.79485 -0.8132,3.66422 -1.39794,4.96751 -0.68338,1.52312 -1.84698,2.97953 -3.02229,3.78283 -0.75499,0.51601 -2.11266,1.16591 -3.17151,1.51815 -1.01665,0.3382 -3.38481,0.86615 -3.88521,0.86615 -0.28458,0 -0.31133,0.0365 -0.37401,0.51011 -0.1466,1.10783 -0.20324,10.95862 -0.0795,13.82665 0.12207,2.82918 0.27996,5.0702 0.39913,5.6649 l 0.0592,0.29533 13.63018,0 13.63019,0 0,16.64631 0,16.64632 1.74511,-0.87378 c 0.95981,-0.48058 2.42168,-1.23794 3.2486,-1.68301 z"
       id="path4340"
       inkscape:connector-curvature="0" />
  </g>
</svg>
